<svg width="50" height="26" version="1.1" viewBox="0 0 13.228 6.8786" xmlns="http://www.w3.org/2000/svg"><path d="m10.398 1.1409v0.64675c-1.0725 0-1.8102 0.77025-2.4554 1.4138-0.64512 0.64512-1.1993 1.1651-1.8444 1.1651a0.43063 0.43063 0 1 0 0 0.86125c1.0758 0 1.8086-0.77025 2.4538-1.4154s1.2025-1.1635 1.846-1.1651v0.6435l1.5048-1.0741-1.5048-1.0774zm-4.342 0.64512a0.43063 0.43063 0 0 0-0.00162 0 0.43118 0.43118 0 1 0 0.043875 0.86125c0.4225 0 0.80925 0.23562 1.2074 0.572 0.10725-0.10075 0.21612-0.2015 0.33475-0.32175l0.2925-0.28762c-0.50376-0.44687-1.0855-0.82225-1.833-0.82225a0.43063 0.43063 0 0 0-0.04225 0zm4.342 1.9338v0.64675c-0.4225 0-0.81088-0.23562-1.2074-0.57362a13.52 13.52 0 0 0-0.33312 0.32012l-0.29738 0.2925c0.50375 0.44362 1.0888 0.82225 1.8379 0.82225v0.6435l1.5048-1.0758-1.5048-1.0741z" fill="#fff" stroke-width="1.625"/></svg>
