<svg width="24" height="24" version="1.1" viewbox="0 0 16 16" xmlns="http://www.w3.org/2000/svg"><path d="m12 0a12 12 0 0 0-12 12 12 12 0 0 0 12 12 12 12 0 0 0 12-12 12 12 0 0 0-12-12zm0 1a11 11 0 0 1 11 11 11 11 0 0 1-11 11 11 11 0 0 1-11-11 11 11 0 0 1 11-11zm-1 6-3 3h-3v4h3l3 3h1v-10h-1zm6.25 0-0.7793 0.625c0.963 1.2 1.5293 2.715 1.5293 4.375s-0.5653 3.175-1.5293 4.375l0.7793 0.625c1.098-1.37 1.75-3.108 1.75-5s-0.652-3.63-1.75-5zm-1.5625 1.25-0.8125 0.65625c0.688 0.857 1.125 1.9098 1.125 3.0938s-0.437 2.2368-1.125 3.0938l0.8125 0.65625c0.822-1.027 1.3125-2.33 1.3125-3.75s-0.4895-2.723-1.3125-3.75zm-1.5645 1.25a4.008 4.008 0 0 0 0.001953 0.0019531l0.001953-0.0019531h-0.003906zm0.001953 0.0019531-0.7793 0.62305c0.408 0.513 0.6543 1.165 0.6543 1.875s-0.24525 1.36-0.65625 1.875l0.7793 0.625a4.008 4.008 0 0 0 0.001953-4.998z" fill="#16a34c"/></svg>
