<svg width="24" height="24" version="1.1" viewbox="0 0 16 16" xmlns="http://www.w3.org/2000/svg"><path d="m11 7-3 3h-3v4h3l3 3h1v-10zm6.25 0-0.7793 0.625c0.963 1.2 1.5293 2.715 1.5293 4.375s-0.5653 3.175-1.5293 4.375l0.7793 0.625c1.098-1.37 1.75-3.108 1.75-5s-0.652-3.63-1.75-5zm-1.5625 1.25-0.8125 0.65625c0.688 0.857 1.125 1.9098 1.125 3.0938s-0.437 2.2368-1.125 3.0938l0.8125 0.65625c0.822-1.027 1.3125-2.33 1.3125-3.75s-0.4895-2.723-1.3125-3.75zm-1.5645 1.25 2e-3 0.00195 2e-3 -0.00195zm2e-3 0.00195-0.7793 0.62305c0.408 0.513 0.6543 1.165 0.6543 1.875s-0.24525 1.36-0.65625 1.875l0.7793 0.625c1.1665-1.4615 1.1673-3.5355 2e-3 -4.998z" fill="#166c4c"/></svg>
