<svg width="24" height="24" version="1.1" viewbox="0 0 16 16" xmlns="http://www.w3.org/2000/svg"><path d="m12 0a12 12 0 0 0-12 12 12 12 0 0 0 12 12 12 12 0 0 0 12-12 12 12 0 0 0-12-12zm0 1a11 11 0 0 1 11 11 11 11 0 0 1-11 11 11 11 0 0 1-11-11 11 11 0 0 1 11-11z" fill="#414c24" fill-rule="evenodd" stroke-width="1.0336"/><path d="m5 10v4h3l3 3h1v-10h-1l-3 3zm12.25-3-0.78 0.625c0.963 1.2 1.53 2.715 1.53 4.375s-0.566 3.175-1.53 4.375l0.78 0.625c1.098-1.37 1.75-3.108 1.75-5s-0.652-3.63-1.75-5zm-1.563 1.25-0.812 0.656c0.688 0.857 1.125 1.91 1.125 3.094s-0.437 2.237-1.125 3.094l0.813 0.656c0.822-1.027 1.312-2.33 1.312-3.75s-0.49-2.723-1.313-3.75zm-1.561 1.25-0.78 0.625c0.408 0.513 0.654 1.165 0.654 1.875s-0.245 1.36-0.656 1.875l0.78 0.625a4.008 4.008 0 0 0 0-5z" fill="#414c24"/></svg>
