<svg width="24" height="24" version="1.1" viewbox="0 0 16 16" xmlns="http://www.w3.org/2000/svg"><defs><linearGradient id="a" x2="24" y1="24" gradientUnits="userSpaceOnUse"><stop stop-color="#16a34c" offset="0"/><stop stop-color="#dbce85" offset="1"/></linearGradient></defs><path d="m12 0a12 12 0 0 0-12 12 12 12 0 0 0 12 12 12 12 0 0 0 12-12 12 12 0 0 0-12-12zm-1 7h1v10h-1l-3-3h-3v-4h3l3-3zm6.25 0c1.098 1.37 1.75 3.108 1.75 5s-0.652 3.63-1.75 5l-0.7793-0.625c0.964-1.2 1.5293-2.715 1.5293-4.375s-0.5663-3.175-1.5293-4.375l0.7793-0.625zm-1.5625 1.25c0.823 1.027 1.3125 2.33 1.3125 3.75s-0.4905 2.723-1.3125 3.75l-0.8125-0.65625c0.688-0.857 1.125-1.9098 1.125-3.0938s-0.437-2.2368-1.125-3.0938l0.8125-0.65625zm-1.5645 1.25h0.003906l-0.001953 0.0019531a4.008 4.008 0 0 1-0.001953 4.998l-0.7793-0.625c0.411-0.515 0.65625-1.165 0.65625-1.875s-0.2463-1.362-0.6543-1.875l0.7793-0.62305a4.008 4.008 0 0 0-0.001953-0.0019531z" fill="url(#a)"/></svg>
